<?xml version="1.0" standalone="no"?>
<!DOCTYPE svg PUBLIC "-//W3C//DTD SVG 20010904//EN"
 "http://www.w3.org/TR/2001/REC-SVG-20010904/DTD/svg10.dtd">
<svg version="1.0" xmlns="http://www.w3.org/2000/svg"
 width="800.000000pt" height="600.000000pt" viewBox="0 0 800.000000 600.000000"
 preserveAspectRatio="xMidYMid meet">

<g transform="translate(0.000000,600.000000) scale(0.100000,-0.100000)"
fill="#000000" stroke="none">
<path d="M3500 3899 c-272 -154 -505 -292 -517 -305 l-23 -25 1 -567 c0 -312
4 -575 7 -585 4 -10 57 -46 118 -80 l110 -63 27 44 c15 24 25 47 22 52 -3 4
-43 30 -90 56 l-85 48 0 525 0 526 168 95 167 96 5 46 c3 25 12 53 19 62 19
23 76 36 157 36 l71 0 171 96 171 95 33 -17 c18 -9 112 -62 208 -116 l175
-100 51 16 c28 9 60 16 72 16 12 0 22 3 22 8 0 6 -549 322 -561 322 -2 0 -227
-126 -499 -281z"/>
<path d="M3454 3782 c9 -14 316 -755 316 -762 0 -4 -122 -187 -270 -406 l-270
-399 160 -3 c126 -2 166 1 189 12 20 11 83 99 212 296 117 181 185 276 190
268 4 -7 46 -119 94 -248 47 -129 95 -249 106 -266 35 -58 65 -65 241 -62
l156 3 -155 402 -155 403 234 357 c129 197 243 371 253 386 l19 29 -140 -4
c-132 -3 -142 -5 -193 -33 -74 -41 -108 -84 -250 -315 -117 -190 -125 -201
-136 -178 -7 12 -50 111 -95 219 -123 296 -138 308 -368 309 -79 0 -141 -3
-138 -8z"/>
<path d="M4777 3683 c-15 -25 -27 -47 -27 -51 0 -4 41 -29 90 -56 l90 -49 0
-526 0 -526 -155 -88 -154 -88 -3 -56 c-4 -83 -27 -97 -171 -103 l-112 -5
-167 -93 -167 -93 -38 20 c-21 11 -109 60 -197 109 -141 80 -162 89 -185 80
-14 -5 -52 -13 -83 -16 l-58 -7 280 -158 c153 -87 283 -157 287 -154 4 2 236
133 515 291 379 215 508 293 512 309 3 12 6 274 6 582 0 482 -2 564 -15 582
-8 12 -61 48 -118 80 l-103 59 -27 -43z"/>
</g>
</svg>
